<svg xmlns="http://www.w3.org/2000/svg" viewBox="0 0 900 260" width="900" height="260" role="img" aria-label="Quantum horizon">
<rect width="900" height="260" fill="#faf8f3"/>
<line x1="92" y1="188" x2="860" y2="188" stroke="#d9d3c6" stroke-width="1"/>
<line x1="92.0" y1="188" x2="92.0" y2="194" stroke="#d9d3c6" stroke-width="1"/>
<text x="92.0" y="210" font-family="'Iowan Old Style','Palatino Linotype',Palatino,Georgia,serif" font-size="12" fill="#6d7b88" text-anchor="middle">2026</text>
<line x1="163.3" y1="188" x2="163.3" y2="194" stroke="#d9d3c6" stroke-width="1"/>
<text x="163.3" y="210" font-family="'Iowan Old Style','Palatino Linotype',Palatino,Georgia,serif" font-size="12" fill="#6d7b88" text-anchor="middle">2028</text>
<line x1="234.7" y1="188" x2="234.7" y2="194" stroke="#d9d3c6" stroke-width="1"/>
<text x="234.7" y="210" font-family="'Iowan Old Style','Palatino Linotype',Palatino,Georgia,serif" font-size="12" fill="#6d7b88" text-anchor="middle">2030</text>
<line x1="306.0" y1="188" x2="306.0" y2="194" stroke="#d9d3c6" stroke-width="1"/>
<text x="306.0" y="210" font-family="'Iowan Old Style','Palatino Linotype',Palatino,Georgia,serif" font-size="12" fill="#6d7b88" text-anchor="middle">2032</text>
<line x1="377.4" y1="188" x2="377.4" y2="194" stroke="#d9d3c6" stroke-width="1"/>
<text x="377.4" y="210" font-family="'Iowan Old Style','Palatino Linotype',Palatino,Georgia,serif" font-size="12" fill="#6d7b88" text-anchor="middle">2034</text>
<line x1="448.7" y1="188" x2="448.7" y2="194" stroke="#d9d3c6" stroke-width="1"/>
<text x="448.7" y="210" font-family="'Iowan Old Style','Palatino Linotype',Palatino,Georgia,serif" font-size="12" fill="#6d7b88" text-anchor="middle">2036</text>
<line x1="520.1" y1="188" x2="520.1" y2="194" stroke="#d9d3c6" stroke-width="1"/>
<text x="520.1" y="210" font-family="'Iowan Old Style','Palatino Linotype',Palatino,Georgia,serif" font-size="12" fill="#6d7b88" text-anchor="middle">2038</text>
<line x1="591.4" y1="188" x2="591.4" y2="194" stroke="#d9d3c6" stroke-width="1"/>
<text x="591.4" y="210" font-family="'Iowan Old Style','Palatino Linotype',Palatino,Georgia,serif" font-size="12" fill="#6d7b88" text-anchor="middle">2040</text>
<line x1="662.7" y1="188" x2="662.7" y2="194" stroke="#d9d3c6" stroke-width="1"/>
<text x="662.7" y="210" font-family="'Iowan Old Style','Palatino Linotype',Palatino,Georgia,serif" font-size="12" fill="#6d7b88" text-anchor="middle">2042</text>
<line x1="734.1" y1="188" x2="734.1" y2="194" stroke="#d9d3c6" stroke-width="1"/>
<text x="734.1" y="210" font-family="'Iowan Old Style','Palatino Linotype',Palatino,Georgia,serif" font-size="12" fill="#6d7b88" text-anchor="middle">2044</text>
<line x1="805.4" y1="188" x2="805.4" y2="194" stroke="#d9d3c6" stroke-width="1"/>
<text x="805.4" y="210" font-family="'Iowan Old Style','Palatino Linotype',Palatino,Georgia,serif" font-size="12" fill="#6d7b88" text-anchor="middle">2046</text>
<rect x="92.0" y="104" width="71.3" height="38" fill="#a8791c" fill-opacity="0.85"/>
<rect x="163.3" y="104" width="107.0" height="38" fill="#1c2733" fill-opacity="0.82"/>
<line x1="745.9" y1="62" x2="745.9" y2="188" stroke="#7a2f1c" stroke-width="2" stroke-dasharray="6 4"/>
<circle cx="745.9" cy="62.0" r="4" fill="#7a2f1c"/>
<text x="737.9" y="54" font-family="'Iowan Old Style','Palatino Linotype',Palatino,Georgia,serif" font-size="14" font-weight="bold" fill="#7a2f1c" text-anchor="end">Quantum horizon 2045</text>
<text x="92" y="90" font-family="'Iowan Old Style','Palatino Linotype',Palatino,Georgia,serif" font-size="12" fill="#6d7b88" text-anchor="start">Today</text>
</svg>